<svg id="bold" height="512" viewBox="0 0 24 24" width="512" xmlns="http://www.w3.org/2000/svg"><path d="M18.751 7.499a.75.75 0 01.53 1.281l-3.001 3a.75.75 0 11-1.061-1.061l3.001-3.001a.751.751 0 01.531-.219zM13 12H2a2 2 0 00-2 2v8a2 2 0 002 2h11a2 2 0 002-2v-8a2 2 0 00-2-2zm-.5 10h-10a.5.5 0 01-.5-.5V16h11v5.5a.5.5 0 01-.5.5z"/><path d="M21 0H3C1.346 0 0 1.346 0 3v8.78A2.98 2.98 0 012 11V5h20v14c0 .552-.449 1-1 1h-5v2h5c1.654 0 3-1.346 3-3V3c0-1.654-1.346-3-3-3z"/><path d="M19.25 11a.746.746 0 01-.53-.22l-2.5-2.5A.75.75 0 0116.75 7h2.5a.75.75 0 01.75.75v2.5a.75.75 0 01-.75.75z"/></svg>