<svg height="512" viewBox="0 0 512 512" width="512" xmlns="http://www.w3.org/2000/svg"><g id="Fill_out_line" data-name="Fill out line"><rect fill="#8acce7" height="256" rx="32" width="352" x="136" y="40"/><path d="m136 264h352a0 0 0 0 1 0 0 32 32 0 0 1 -32 32h-288a32 32 0 0 1 -32-32 0 0 0 0 1 0 0z" fill="#379ec3"/><path d="m168 64h288a8 8 0 0 1 8 8v192a0 0 0 0 1 0 0h-304a0 0 0 0 1 0 0v-192a8 8 0 0 1 8-8z" fill="#eedc9a"/><path d="m288 296v16a32 32 0 0 1 -32 32h112a32 32 0 0 1 -32-32v-16z" fill="#8acce7"/><rect fill="#396795" height="208" rx="24" width="240" x="24" y="224"/><path d="m48 488-24-16 24-16h208v32z" fill="#396795"/><path d="m456 32h-288a40.04552 40.04552 0 0 0 -40 40v128h16v-128a24.0275 24.0275 0 0 1 24-24h288a24.0275 24.0275 0 0 1 24 24v184h-7.6665v-184.333c0-.21679-.00879-.43457-.02637-.65137a16.44533 16.44533 0 0 0 -16.30713-15.01563h-288a16.01833 16.01833 0 0 0 -16 16v128h16v-128h288c.09766 0 .26562.15625.3335.26367v183.73633h-168.3335v16h190.62378a24.03853 24.03853 0 0 1 -22.62378 16h-168v16h40v8a39.79461 39.79461 0 0 0 8.019 24h-48.019v16h80a8 8 0 0 0 0-16 24.02718 24.02718 0 0 1 -24-24v-8h112a40.04552 40.04552 0 0 0 40-40v-192a40.04552 40.04552 0 0 0 -40-40z"/><path d="m240 216h-192a32.03635 32.03635 0 0 0 -32 32v160a32.03635 32.03635 0 0 0 32 32h192a32.03635 32.03635 0 0 0 32-32v-160a32.03635 32.03635 0 0 0 -32-32zm-192 16h192a16.01833 16.01833 0 0 1 16 16v16h-224v-16a16.01833 16.01833 0 0 1 16-16zm192 192h-192a16.01833 16.01833 0 0 1 -16-16v-128h224v128a16.01833 16.01833 0 0 1 -16 16z"/><path d="m48 240h32v16h-32z"/><path d="m208 240h32v16h-32z"/><path d="m40 296v24h16v-16h16v-16h-24a8.00008 8.00008 0 0 0 -8 8z"/><path d="m232 400h-16v16h24a8.00008 8.00008 0 0 0 8-8v-24h-16z"/><path d="m240 288h-24v16h16v16h16v-24a8.00008 8.00008 0 0 0 -8-8z"/><path d="m56 384h-16v24a8.00008 8.00008 0 0 0 8 8h24v-16h-16z"/><path d="m256 448h-208a7.99983 7.99983 0 0 0 -4.4375 1.34375l-24 16a7.99959 7.99959 0 0 0 0 13.3125l24 16a7.99983 7.99983 0 0 0 4.4375 1.34375h208a8.00008 8.00008 0 0 0 8-8v-32a8.00008 8.00008 0 0 0 -8-8zm-8 32h-197.57764l-12-8 12-8h197.57764z"/><path d="m384 230.62793a30.62793 30.62793 0 0 1 -21.65723-52.28418 14.62758 14.62758 0 1 0 -20.68554-20.6875l-40.00049 40.001a30.62743 30.62743 0 0 1 -43.314-43.31348l4.00049-4.001a20.28409 20.28409 0 0 0 -28.68652-28.68554l-44 44-11.31348-11.31446 44-44a36.28446 36.28446 0 0 1 51.31348 51.31446l-4 4a14.62741 14.62741 0 1 0 20.686 20.68652l40.00049-40.001a30.62743 30.62743 0 0 1 43.314 43.31348 14.62758 14.62758 0 1 0 20.68554 20.6875l16.00049-16.001 11.31348 11.31446-16 16a30.42856 30.42856 0 0 1 -21.65671 8.97074z"/><path d="m420.686 176h22.627v16h-22.627z" transform="matrix(.707 -.707 .707 .707 -3.585 359.344)"/></g></svg>