<?xml version="1.0"?>
<svg xmlns="http://www.w3.org/2000/svg" viewBox="0 0 512 512" width="512" height="512"><g id="Fill_out_line" data-name="Fill out line"><polygon points="240 376 240 422 200 472 128 408 104 408 48 368 78.25 346.75 86.08 330.51 100.67 300.22 136 312 144 360 174.55 377.45 192 360 195 355.25 240 376" style="fill:#f4ceaf"/><path d="M496,304V496H232V384l-72.16992-41.35986,41.81006-58.54A48.014,48.014,0,0,1,240.7,264h31.24A24.06472,24.06472,0,0,0,296,239.93994v-62.25L376,176v64a23.98552,23.98552,0,0,0,16.32007,22.73A23.51785,23.51785,0,0,0,400,264h36.12012a48.00341,48.00341,0,0,1,33.93994,14.06006Z" style="fill:#8acce7"/><circle cx="320" cy="112" r="88" style="fill:#2f4054"/><path d="M392.32007,262.73,392,264a42.243,42.243,0,0,1-40.99,32H320.99A42.243,42.243,0,0,1,280,264l-.32007-1.28027A24.03019,24.03019,0,0,0,294.60986,247.98a23.78436,23.78436,0,0,0,1.39014-8.04v-102.25L376,136V240A23.98552,23.98552,0,0,0,392.32007,262.73Z" style="fill:#f4ceaf"/><path d="M352,128v0a16,16,0,0,1,16-16h0a16,16,0,0,1,16,16v32a16,16,0,0,1-16,16h0a16,16,0,0,1-16-16V128Z" style="fill:#f2c194"/><path d="M352,232H296a64,64,0,0,1-64-64V112l.40206-.40206A135.19581,135.19581,0,0,1,327.99994,72H328l1.37261,1.37261A77.25476,77.25476,0,0,1,352,128V232Z" style="fill:#f4ceaf"/><path d="M352,232v16H296c-.46,0-.92993,0-1.39014-.02a23.78436,23.78436,0,0,0,1.39014-8.04V232Z" style="fill:#f4ceaf"/><path d="M352,240v0a8,8,0,0,1-8,8H296c-.46,0-.92993,0-1.39014-.02a23.78436,23.78436,0,0,0,1.39014-8.04V232h48A8,8,0,0,1,352,240Z" style="fill:#f2c194"/><polygon points="144 272 127.57 300.75 97.89 352.7 48 440 24 424 96 248 144 272" style="fill:#396795"/><path d="M184,224a47.99674,47.99674,0,1,1-48-48A47.918,47.918,0,0,1,184,224Z" style="fill:#2f4054"/><path d="M183.55005,230.6001a47.69435,47.69435,0,0,1-12.39014,26.06006L89.99,210.28a47.97649,47.97649,0,0,1,16.18994-23.88989Z" style="fill:#c4d4e0"/><polygon points="440 496 439.914 384 496 351.809 496 496 440 496" style="fill:#f4ceaf"/><path d="M104.84009,334.31006l-7.65015,15.2998-18.03,36.08008a16.00172,16.00172,0,0,1-21.47,7.1499l-19.37988-9.67968a16.002,16.002,0,0,1-7.15015-21.47022l25.68018-51.37988a16.00172,16.00172,0,0,1,21.47-7.1499l.12988.05957,19.25,9.62011A16.002,16.002,0,0,1,104.84009,334.31006Z" style="fill:#f4ceaf"/><path d="M144,360l-8-48L88,296v0a33.12167,33.12167,0,0,0,13.04938,38.03289L104,336v1.37261A54.62737,54.62737,0,0,0,120,376l0,0Z" style="fill:#f4ceaf"/><polygon points="484.022 349.452 448 370.096 448 352 432 352 432 496 448 496 448 388.538 491.978 363.335 484.022 349.452"/><path d="M464.3999,283.71973l25.94019,25.94043,11.31982-11.32032L475.72,272.3999A55.66721,55.66721,0,0,0,436.12012,256H400a16.02116,16.02116,0,0,1-16-16V183.54A95.99563,95.99563,0,1,0,224,112v56a72.08582,72.08582,0,0,0,64,71.55005v.38989A16.07239,16.07239,0,0,1,271.93994,256H240.7a56.13165,56.13165,0,0,0-45.57007,23.4502l-41.80981,58.54a7.99061,7.99061,0,0,0,2.53,11.58985L178.26,362.41992l-5.0498,5.04981H173.21L151.27,354.93994l-7.37988-44.25976a8.00788,8.00788,0,0,0-5.36011-6.27l-3.22-1.07032,14.29-25.00976A55.99581,55.99581,0,1,0,86.48,250.15991L68.71,293.6001a23.98417,23.98417,0,0,0-19.02,13.12988L24,358.10986a24.0293,24.0293,0,0,0,6.31006,29.34034l-13.71,33.51953a8.00587,8.00587,0,0,0,2.96,9.69043l24,16A8.03466,8.03466,0,0,0,48,448a8.23891,8.23891,0,0,0,1.84009-.21A8.022,8.022,0,0,0,54.95,443.96973L79.77,400.52,99.3501,414.50977A7.99369,7.99369,0,0,0,104,416h20.96l69.73,61.98A7.97351,7.97351,0,0,0,200,480c.22,0,.45-.00977.67993-.03027A7.996,7.996,0,0,0,206.25,477L224,454.81006V496h16V352H224v18.18994l-52.52-30.1001L208.1499,288.75A40.07251,40.07251,0,0,1,240.7,272h31.24c.74,0,1.47-.03027,2.2002-.06982A50.15683,50.15683,0,0,0,320.98,304h30.04a50.15683,50.15683,0,0,0,46.83984-32.06982C398.57007,271.98,399.28,272,400,272h36.12012A39.71143,39.71143,0,0,1,464.3999,283.71973ZM144.2,263.1499,99.75,240.92993A39.93362,39.93362,0,0,1,96,224c0-.3501,0-.71.01-1.06006l.00024-.00537,61.18335,34.96289-.00366.00244A39.26583,39.26583,0,0,1,144.2,263.1499Zm-11.34009,12.22022-13.02978,22.81006-29.3-9.77a7.78894,7.78894,0,0,0-2.25-.40039l11.86011-29ZM122.34009,186.3999a40.00871,40.00871,0,0,1,52.98,30.28l.00049.00342-52.99488-30.28174.0044-.00171ZM107.25,196.22l.00293-.00293L174.541,234.666l-.001.0039a40.03085,40.03085,0,0,1-5.3999,11.62012l-.00293.00415-69.21729-39.554V206.74A39.822,39.822,0,0,1,107.25,196.22ZM38.31006,365.27,64,313.89014a8.0053,8.0053,0,0,1,10.73-3.58008l4.01,2.00976a41.15485,41.15485,0,0,0,15.01,26.27L72,382.10986a8.0053,8.0053,0,0,1-10.73,3.58008L41.89014,376A8.00559,8.00559,0,0,1,38.31006,365.27Zm7,63.31982-11.43018-7.62011,10.56006-25.79981L54.10986,400a23.66686,23.66686,0,0,0,6.32007,2.12012ZM224,429.18994l-24.98,31.23-65.71-58.3999A7.98432,7.98432,0,0,0,128,400H106.56006L87.68994,386.52,100.53,360.83008a62.30183,62.30183,0,0,0,13.81006,20.83008l11.31982-11.32032A46.28945,46.28945,0,0,1,112,337.37012V336a8.03344,8.03344,0,0,0-3.56006-6.66016l-2.95-1.96A25.1857,25.1857,0,0,1,94.31006,306.54l34.58984,11.52978,7.21,43.25A7.99,7.99,0,0,0,140.03,366.9502l56,32L203.97,385.0498,187.60986,375.71l5.04-5.04L224,388.64014ZM320,32a80.03963,80.03963,0,0,1,72,114.91992V128a24.03189,24.03189,0,0,0-24-24,23.76478,23.76478,0,0,0-10.71,2.53A84.66656,84.66656,0,0,0,335.03,67.72l-1.37012-1.38013A8.00745,8.00745,0,0,0,328,64a141.99893,141.99893,0,0,0-85.56006,28.3501A80.15144,80.15144,0,0,1,320,32Zm31.02,256H320.98a34.149,34.149,0,0,1-31.62988-21.1499A32.07149,32.07149,0,0,0,304,240h16V224H296a56.06166,56.06166,0,0,1-56-56V115.3501c.16992-.17017.3501-.33008.53-.5A7.98075,7.98075,0,0,0,248,120h16a8,8,0,0,0,0-16H253.59009A126.08942,126.08942,0,0,1,324.71,80.04,68.784,68.784,0,0,1,344,128a8,8,0,0,0,16,0,8,8,0,0,1,16,0v32a8,8,0,0,1-16,0H344a24.03189,24.03189,0,0,0,24,24v56a31.98611,31.98611,0,0,0,14.6499,26.87012A34.17738,34.17738,0,0,1,351.02,288Z"/><path d="M320,104H304a8,8,0,0,0,0,16h16a8,8,0,0,0,0-16Z"/><path d="M269.46973,159.58984a7.995,7.995,0,0,0,10.12011-5.05957l8-24a8.0005,8.0005,0,0,0-15.17968-5.06054l-8,24A8.00129,8.00129,0,0,0,269.46973,159.58984Z"/><circle cx="256" cy="136" r="8"/><circle cx="312" cy="136" r="8"/><path d="M288,168H272a8,8,0,0,0,0,16h16a8,8,0,0,1,0,16h-8a8,8,0,0,0,0,16h8a24,24,0,0,0,0-48Z"/><path d="M88,128a24.0275,24.0275,0,0,0,24-24V48h48V81.37622A23.99787,23.99787,0,1,0,176,104V40a8.00039,8.00039,0,0,0-8-8H104a8.00039,8.00039,0,0,0-8,8V81.37622A23.99849,23.99849,0,1,0,88,128Zm64-16a8,8,0,1,1,8-8A8.00917,8.00917,0,0,1,152,112ZM88,96a8,8,0,1,1-8,8A8.00917,8.00917,0,0,1,88,96Z"/></g></svg>
