<svg height="512" viewBox="0 0 512 512" width="512" xmlns="http://www.w3.org/2000/svg"><g id="Fill_out_line" data-name="Fill out line"><path d="m56 184h208v304h-208z" fill="#8acce7"/><path d="m24 440 16 16 16-16v-168a16 16 0 0 0 -16-16 16 16 0 0 0 -16 16z" fill="#349966"/><path d="m24 296h32v32h-32z" fill="#eebe33"/><path d="m260.09161 288h.15845a35.99994 35.99994 0 0 1 35.99994 35.99994v18.461a73.539 73.539 0 0 0 73.539 73.53906h.00011a73.539 73.539 0 0 0 51.99994-21.53908l44.67184-44.67184a73.539 73.539 0 0 0 21.53911-51.99994v-.31171a73.539 73.539 0 0 0 -73.47741-73.539l-18.41-.01543a35.99994 35.99994 0 0 1 -35.96977-35.99993v-.00015c0-42.76918-51.71468-64.18258-81.94955-33.93271l-52.05121 52.07709c-30.22675 30.24175-8.80814 81.9327 33.94955 81.9327z" fill="#ad7d4d"/><path d="m225.279 14.437h33.941v311.127h-33.941z" fill="#eedc9a" transform="matrix(.707 -.707 .707 .707 -49.255 221.088)"/><path d="m144.25 112h16l24-24v-16l-40-40-40 40z" fill="#eedc9a"/><circle cx="368.25" cy="296" fill="#966342" r="32"/><path d="m404.93628 332.68629h22.62744a11.3137 11.3137 0 0 1 11.3137 11.31371 11.31369 11.31369 0 0 1 -11.31369 11.31369h-22.62745a11.3137 11.3137 0 0 1 -11.3137-11.31369 11.3137 11.3137 0 0 1 11.3137-11.31371z" fill="#2f4054" transform="matrix(.707 -.707 .707 .707 -121.328 395.088)"/><path d="m414.52832 215.94043-18.41406-.02051a28.02921 28.02921 0 0 1 -27.97461-28 55.07723 55.07723 0 0 0 -17.459-40.74414 57.56271 57.56271 0 0 0 -38.88086-15.3457 55.29213 55.29213 0 0 0 -39.26756 16.50492l-8.31372 8.31909-71.96851-71.96854v-12.68555a8.00235 8.00235 0 0 0 -2.34277-5.65723l-40-40a8.003 8.003 0 0 0 -11.31446 0l-40 40a8.00122 8.00122 0 0 0 0 11.31446l40 40a8.00235 8.00235 0 0 0 5.65723 2.34277h12.68555l71.98071 71.98071-8.43481 8.43433a55.99919 55.99919 0 0 0 39.60839 95.58496h.16016a28.03146 28.03146 0 0 1 28 28v18.46a81.5424 81.5424 0 0 0 139.19727 57.65723l44.66992-44.66992a81.00616 81.00616 0 0 0 23.88281-57.65731v-.30957a81.641 81.641 0 0 0 -81.47168-81.54zm-46.27832 56.05957a24 24 0 1 1 -24 24 24.0275 24.0275 0 0 1 24-24zm-33.89209 2.79346-162.79346-162.79346 12.68555-12.68555 162.79346 162.79346a40.30578 40.30578 0 0 0 -12.68555 12.68555zm-218.79443-202.79346 28.68652-28.68652 32 32v9.373l-19.31348 19.31352h-9.373zm364.43652 225.79a65.99145 65.99145 0 0 1 -19.19727 46.34277l-44.67382 44.67481a65.53927 65.53927 0 0 1 -111.87891-46.34758v-18.46a44.04978 44.04978 0 0 0 -44-44h-.16016c-19.70117 0-32.00488-12.751-36.95019-24.68457-4.94629-11.93457-5.26856-29.65332 8.65625-43.58789l8.43384-8.43335 88.27172 88.27173a40.04695 40.04695 0 1 0 35.31446-35.31446l-88.28392-88.28393 8.31568-8.32105a38.82337 38.82337 0 0 1 27.95214-11.8164c25.251 0 40.33985 20.38379 40.33985 40.08984a44.04737 44.04737 0 0 0 43.96191 44l18.41211.02051a65.62077 65.62077 0 0 1 65.48631 65.54004z"/><path d="m410.59277 322.34277-16 16a19.31424 19.31424 0 0 0 27.31446 27.31446l16-16a19.31424 19.31424 0 0 0 -27.31446-27.31446zm16 16-16 16a3.31318 3.31318 0 0 1 -4.68554-4.68554l16-16a3.31318 3.31318 0 0 1 4.68554 4.68554z"/><path d="m256 480h-192v-288h136v-16h-144a7.9979 7.9979 0 0 0 -8 8v65.37988a23.59674 23.59674 0 0 0 -8-1.37988 24.03189 24.03189 0 0 0 -24 24v168a8.00769 8.00769 0 0 0 2.34009 5.65991l16 16a8.01478 8.01478 0 0 0 11.31982 0l2.34009-2.33984v28.67993a7.9979 7.9979 0 0 0 8 8h208a7.9979 7.9979 0 0 0 8-8v-176h-16zm-224-208a8 8 0 0 1 16 0v16h-16zm16 48h-16v-16h16zm0 116.68994-8 8-8-8v-100.68994h16z"/><path d="m192 336a24 24 0 1 0 24 24v-64a8.00039 8.00039 0 0 0 -8-8h-64a8.00039 8.00039 0 0 0 -8 8v41.37622a23.99787 23.99787 0 1 0 16 22.62378v-56h48v33.37622a23.88238 23.88238 0 0 0 -8-1.37622zm-64 32a8 8 0 1 1 8-8 8.00917 8.00917 0 0 1 -8 8zm64 0a8 8 0 1 1 8-8 8.00917 8.00917 0 0 1 -8 8z"/></g></svg>