<svg height="512" viewBox="0 0 512 512" width="512" xmlns="http://www.w3.org/2000/svg"><g id="Fill_out_line" data-name="Fill out line"><g fill="#984e3c"><path d="m440 248v112h-368v-112a163.80517 163.80517 0 0 1 115.88-48h136.24a163.80574 163.80574 0 0 1 115.88 48z"/><path d="m120 288v160h-48v-132.28027a32.00142 32.00142 0 0 1 -48-27.71973 48 48 0 0 1 96 0z"/><path d="m488 288a32.00945 32.00945 0 0 1 -48 27.71973v132.28027h-48v-160a48 48 0 0 1 96 0z"/><path d="m120 352h272v96h-272z"/></g><path d="m88 448h32v32h-32z" fill="#2f4054"/><path d="m392 448h32v32h-32z" fill="#2f4054"/><path d="m208 104v-16a48 48 0 0 1 48-48h.0001a48 48 0 0 1 48 48v16z" fill="#2f4054"/><path d="m336 200-3.45521-13.82086a24 24 0 0 0 -23.28342-18.17914h-101.66137a23.999 23.999 0 0 0 -21.93 14.25l-18 40.49a24.98719 24.98719 0 0 0 4.54 27.16l106.84349-3.9z" fill="#8acce7"/><path d="m200 264h112v72h-112z" fill="#8acce7"/><path d="m200 304h112v48h-112z" fill="#396795"/><path d="m312 304v32h-29.43994l2.25-13.53027a31.624 31.624 0 0 1 10.15994-18.46973z" fill="#26507a"/><path d="m395.68994 209.45a40.00956 40.00956 0 0 1 -22.10986 35.76l-14.95008 7.48a61.108 61.108 0 0 1 -46.63 3.31l24-32 11.07007-5.53a16.87061 16.87061 0 0 0 4.37993-27.02l-3.45-3.45a16.97056 16.97056 0 0 1 24-24l6.48 6.48a59.62632 59.62632 0 0 1 16.66 32.37988 39.87349 39.87349 0 0 1 .54994 6.59012z" fill="#f4ceaf"/><path d="m334.06006 256a22.05568 22.05568 0 0 0 -22.06006 22.06006v18.33984a39.59367 39.59367 0 0 1 -67.6 28l-32.8-32.7998a39.59806 39.59806 0 0 1 28-67.6001h18.34a22.06431 22.06431 0 0 0 22.06-22.06006 23.97835 23.97835 0 0 1 24.16992-24.0498 23.50253 23.50253 0 0 1 16.80008 7.07986l30.06 30.06c15.12 15.1199 4.40994 40.97-16.96994 40.97z" fill="#ad7d4d"/><path d="m384 136 16 16h16l24-24-32-32-24 24z" fill="#eedc9a"/><path d="m312 296.25977v.14013a39.6155 39.6155 0 0 1 -29.21 38.22022l2.02-12.15039a31.55176 31.55176 0 0 1 27.19-26.20996z" fill="#966342"/><circle cx="256" cy="280" fill="#966342" r="16"/><path d="m272 144v24a16 16 0 1 1 -32 0v-24z" fill="#f4ceaf"/><path d="m272 144v12.65991a39.99237 39.99237 0 0 1 -32 0v-12.65991z" fill="#f2c194"/><path d="m256 152a32 32 0 0 1 -32-32v-24a53.8962 53.8962 0 0 1 44.84436-24h3.15564l10.34315 10.34315a19.31369 19.31369 0 0 1 5.65685 13.65685v24a32 32 0 0 1 -32 32z" fill="#f4ceaf"/><path d="m224 120h-12a12 12 0 0 1 -12-12v-8a12 12 0 0 1 12-12 12 12 0 0 1 12 12z" fill="#f2c194"/><path d="m288 120h12a12 12 0 0 0 12-12v-8a12 12 0 0 0 -12-12 12 12 0 0 0 -12 12z" fill="#f2c194"/><path d="m176 448h64v32h-64z" fill="#f4ceaf"/><path d="m229.44 336h-29.44v-32h17.03a31.6241 31.6241 0 0 1 10.16 18.46973z" fill="#26507a"/><path d="m240 448h-48l-19.40578-116.43468a23.67343 23.67343 0 0 1 23.35133-27.56532h.00005a23.67342 23.67342 0 0 1 23.35132 19.78154z" fill="#396795"/><path d="m216 480h-72a32 32 0 0 1 32-32h4.223a32 32 0 0 1 28.62164 17.68915z" fill="#8acce7"/><path d="m272 448h64v32h-64z" fill="#f4ceaf"/><path d="m272 448h48l19.40578-116.43468a23.67343 23.67343 0 0 0 -23.35133-27.56532 23.67342 23.67342 0 0 0 -23.35132 19.78154z" fill="#396795"/><path d="m296 480h72a32 32 0 0 0 -32-32h-4.223a32 32 0 0 0 -28.62164 17.68915z" fill="#8acce7"/><path d="m240 488h-96a8 8 0 0 1 0-16h96a8 8 0 0 1 0 16z" fill="#379ec3"/><path d="m368 488h-96a8 8 0 0 1 0-16h96a8 8 0 0 1 0 16z" fill="#379ec3"/><path d="m219.82 268.18018-.3.2998a17.77433 17.77433 0 0 1 -23.97 1.1499l-21.04-17.54a24.99709 24.99709 0 0 1 -6.84-29.34988l9.56-21.51 42.58 42.58008a17.22258 17.22258 0 0 1 .01 24.3701z" fill="#f4ceaf"/><path d="m182.57 440.06982c-.78-.0498-1.56-.06982-2.35-.06982h2.34z"/><path d="m331.78 440c-.79 0-1.57007.02-2.3501.06982l.01-.06982z"/><path d="m440 232c-1.8 0-3.58008.08984-5.34009.25a171.75952 171.75952 0 0 0 -31-20.73 48.78317 48.78317 0 0 0 -.62988-9.98 67.26993 67.26993 0 0 0 -18.89-36.72l-.81996-.82 8.67993-8.67993 2.34009 2.33984a8.0079 8.0079 0 0 0 5.65991 2.34009h16a8.0079 8.0079 0 0 0 5.65991-2.34009l24-24a8.01508 8.01508 0 0 0 0-11.32007l-32-32a8.01523 8.01523 0 0 0 -11.31982 0l-24 24a8.00827 8.00827 0 0 0 -2.34009 5.66016v16a8.00769 8.00769 0 0 0 2.34009 5.65991l2.33984 2.34009-9.61987 9.62012a24.975 24.975 0 0 0 -33.45007 33.45l-1.60999 1.60981-3.43994-3.43993-.25-1a31.96522 31.96522 0 0 0 -31.05006-24.24h-21.26v-8a40.22955 40.22955 0 0 0 15.18994-24h4.81006a20.02009 20.02009 0 0 0 20-20v-8a20.00058 20.00058 0 0 0 -8.15-16.10986 56.00107 56.00107 0 0 0 -111.7 0 20.00075 20.00075 0 0 0 -8.15 16.10986v8a20.02009 20.02009 0 0 0 20 20h4.81a40.23019 40.23019 0 0 0 15.19 24v8h-24.4a32.045 32.045 0 0 0 -29.25 19l-6.1 13.73a172.70815 172.70815 0 0 0 -94.9 39.53c-1.76-.17017-3.55-.26-5.35-.26a56.06158 56.06158 0 0 0 -56 56 40.04022 40.04022 0 0 0 40 40 40.79587 40.79587 0 0 0 8-.79v120.79a7.99786 7.99786 0 0 0 8 8h8v24a7.99786 7.99786 0 0 0 8 8h32a7.99786 7.99786 0 0 0 8-8v-24h16.02a39.74255 39.74255 0 0 0 -8.02 24 7.99786 7.99786 0 0 0 8 8h96a7.99786 7.99786 0 0 0 8-8v-24h16v24a7.9979 7.9979 0 0 0 8 8h96a7.9979 7.9979 0 0 0 8-8 39.74255 39.74255 0 0 0 -8.02-24h16.02v24a7.9979 7.9979 0 0 0 8 8h32a7.9979 7.9979 0 0 0 8-8v-24h8a7.9979 7.9979 0 0 0 8-8v-120.79a40.79587 40.79587 0 0 0 8 .79 40.04018 40.04018 0 0 0 40-40 56.06158 56.06158 0 0 0 -56-56zm-48-108.68994 16-16 20.68994 20.68994-16 16h-9.37988l-11.31006-11.31006zm-38.34009 46.34985a8.969 8.969 0 0 1 12.68018 0l6.48 6.48023a51.3592 51.3592 0 0 1 14.42991 28.02978 31.84572 31.84572 0 0 1 -17.25 33.89014l-5.11 2.5498a31.18532 31.18532 0 0 0 -3.52-25.34986 25.19468 25.19468 0 0 0 3.03-11.81 24.73406 24.73406 0 0 0 -7.29-17.66l-3.45008-3.4502a8.957 8.957 0 0 1 0-12.67993zm-55.77991 17.5a15.54213 15.54213 0 0 1 17.43006 3.47l9.36987 9.37009-58.33984 58.33984a23.99691 23.99691 0 1 0 11.31982 11.32032l58.34009-58.34009 9.37 9.36987a15.99759 15.99759 0 0 1 -11.30994 27.31006 30.0878 30.0878 0 0 0 -30.06006 30.06006v18.33984c0 .66992-.02 1.34033-.07007 2a31.5381 31.5381 0 0 0 -19.11987 24.06983l-.54 3.23047a31.79138 31.79138 0 0 1 -11.87006 2.2998 31.41642 31.41642 0 0 1 -22.34-9.25l-32.81-32.81006a32.03838 32.03838 0 0 1 -4.05-4.96 25.88914 25.88914 0 0 0 11.98-6.83984l.29-.3003a25.26467 25.26467 0 0 0 0-35.68994l-1.83-1.82983a31.34156 31.34156 0 0 1 15.96-4.32003h18.34a30.0878 30.0878 0 0 0 30.06-30.06006 15.55336 15.55336 0 0 1 9.88-14.78003zm-33.88 92.84009a8 8 0 1 1 -8-8 8.01058 8.01058 0 0 1 8 8zm52.05005 32a15.669 15.669 0 0 1 15.46 18.25l-18.29005 109.75h-31.78l19.15015-114.8999a15.63212 15.63212 0 0 1 15.4599-13.1001zm-88.86 10.46973a32.15756 32.15756 0 0 0 -1.37-5.33985l12.93 12.93018a47.27726 47.27726 0 0 0 33.64995 13.93994h-41.62zm3.36995 117.53027h-31.78l-18.29-109.75a15.673 15.673 0 1 1 30.92-5.1499zm49.44-320a24.08409 24.08409 0 0 1 -12.01 20.79 8.00312 8.00312 0 0 0 -3.99 6.93v20.28a8 8 0 1 1 -16 0v-20.28a8.00312 8.00312 0 0 0 -3.99-6.92993 24.08409 24.08409 0 0 1 -12.01-20.79007v-21.47a45.89768 45.89768 0 0 1 36.68994-18.53l7.99 8a11.24123 11.24123 0 0 1 3.32006 8zm16-24h4a3.999 3.999 0 0 1 4 4v8a3.999 3.999 0 0 1 -4 4h-4zm-80 16h-4a3.99891 3.99891 0 0 1 -4-4v-8a4 4 0 0 1 8 0zm7.57-28.3a.0098.0098 0 0 0 -.01-.01 19.65036 19.65036 0 0 0 -6.86-3.12988 39.99761 39.99761 0 0 1 78.6 0 19.86858 19.86858 0 0 0 -3.34 1.12982 27.02924 27.02924 0 0 0 -3.96-5.01l-10.34009-10.3401a8.00766 8.00766 0 0 0 -5.65991-2.33984h-3.15991a61.81673 61.81673 0 0 0 -45.27009 19.7zm-30.59 101.8a16.00482 16.00482 0 0 1 14.62-9.5h25.76a24.00366 24.00366 0 0 0 45.26 0h6.56994a31.41974 31.41974 0 0 0 -13.18994 25.93994 14.07951 14.07951 0 0 1 -14.06006 14.06006h-18.33994a47.36059 47.36059 0 0 0 -10.2 1.1001l2.19-6.57007-15.18-5.06003-5.91 17.72-23.73-23.73zm-18 40.48 4.83-10.85986 34.35 34.34986a9.23715 9.23715 0 0 1 -.00995 13.05982l-.29.30029a9.73178 9.73178 0 0 1 -13.18.6499l-21.04-17.53a17.06468 17.06468 0 0 1 -4.66005-19.97001zm-62.98 246.02h-16v-16h16zm0-32h-32v-119.99023a40.09959 40.09959 0 0 0 16-32.00977 24.06165 24.06165 0 0 0 -24.08-24h-.4a23.52419 23.52419 0 0 0 -23.52 23.52v.48h16v-.48a7.51164 7.51164 0 0 1 7.52-7.52h.4a8.04709 8.04709 0 0 1 8.08 8 24 24 0 0 1 -48 0 40 40 0 0 1 80 0zm-15.53-202.35986a156.8803 156.8803 0 0 1 68.22-27.89014l-4.33 9.74a33.13258 33.13258 0 0 0 9.03 38.75024l21.04 17.52976a25.97468 25.97468 0 0 0 3.97 2.73 47.3591 47.3591 0 0 0 11.54 18.75l.54.54a31.68961 31.68961 0 0 0 -41.78 35.08984l1.85 11.12016h-38.55v-56a56.05154 56.05154 0 0 0 -31.53-50.35986zm78.09 154.35986h-46.56v-32h41.22zm-46.56 48v-32h49.22l5.34 32 .01.06982c-.78-.0498-1.56-.06982-2.35-.06982zm25.37 32a24.04436 24.04436 0 0 1 22.63-16h4.22a23.863 23.863 0 0 1 21.47 13.27l1.37 2.73zm78.63 0h-11.05l-4.95-9.89014a41.00557 41.00557 0 0 0 -3.76-6.10986h19.76zm33.22-32h-18.44l-5.34-32h29.12006zm8-48h-34.44l-5.34-32h45.12006zm22.78 70.10986-4.94995 9.89014h-11.05005v-16h19.76a41.01055 41.01055 0 0 0 -3.76 6.10986zm12.93994 9.89014 1.37012-2.73a23.86289 23.86289 0 0 1 21.46994-13.27h4.22a24.04436 24.04436 0 0 1 22.63 16zm75.06006-32h-52.22c-.79 0-1.57007.02-2.3501.06982l.01-.06982 5.3401-32h49.22zm0-48h-46.56006l5.34006-32h41.22zm0-104v56h-38.55l1.8501-11.12012a31.67523 31.67523 0 0 0 -27.3001-36.62988v-18.18994a14.05089 14.05089 0 0 1 4.04-9.85986 42.15136 42.15136 0 0 0 9.32 1.04 42.76155 42.76155 0 0 0 19.17-4.56l24.62-12.31006a47.75891 47.75891 0 0 0 22.95-24.60014 154.67388 154.67388 0 0 1 15.44 9.85988 56.047 56.047 0 0 0 -31.54 50.37012zm32 184h-16v-16h16zm40-160a24.00243 24.00243 0 0 1 -24-24 8.04711 8.04711 0 0 1 8.08008-8h.3999a7.51154 7.51154 0 0 1 7.52 7.52v.48h16v-.47021a23.52419 23.52419 0 0 0 -23.51998-23.52979h-.3999a24.06829 24.06829 0 0 0 -24.0801 24 40.09888 40.09888 0 0 0 16 32.00977v119.99023h-32v-152a40 40 0 0 1 80 0 24.03189 24.03189 0 0 1 -24 24z"/><path d="m296 96v4a3.999 3.999 0 0 1 4-4z"/><path d="m300 96a3.999 3.999 0 0 0 -4 4v-4z"/></g></svg>